<svg width="28" height="28" viewBox="0 0 28 28" fill="none" xmlns="http://www.w3.org/2000/svg">
<g id="Frame" clip-path="url(#clip0_1_839)">
<path id="Vector" d="M13.6108 27.2141L8.59601 10.9541H18.6181L13.6108 27.2141Z" fill="white"/>
<path id="Vector_2" d="M25.6443 10.9541L27.1721 15.8941C27.3103 16.3431 27.1609 16.8381 26.796 17.1171L13.6117 27.2141L25.6443 10.9541Z" fill="white" fill-opacity="0.65"/>
<path id="Vector_3" d="M25.6443 10.9539H18.6191L21.6431 1.16089C21.7971 0.660889 22.4719 0.660889 22.6324 1.16089L25.6443 10.9539Z" fill="white"/>
<path id="Vector_4" d="M1.57271 10.9541L0.0513757 15.8941C-0.0867577 16.3431 0.0625757 16.8381 0.427509 17.1171L13.6127 27.2141L1.57271 10.9541Z" fill="white" fill-opacity="0.65"/>
<path id="Vector_5" d="M1.57266 10.9539H8.596L5.57946 1.16089C5.42453 0.660889 4.75066 0.660889 4.59013 1.16089L1.57266 10.9539Z" fill="white"/>
<path id="Vector_6" d="M13.6127 27.2141L8.59786 10.9541H1.57266L13.6127 27.2141Z" fill="white" fill-opacity="0.85"/>
<path id="Vector_7" d="M13.6117 27.2141L25.6443 10.9541H18.6191L13.6117 27.2141Z" fill="white" fill-opacity="0.85"/>
</g>
<defs>
<clipPath id="clip0_1_839">
<rect width="28" height="28" fill="white"/>
</clipPath>
</defs>
</svg>
